Coordinates
version=1
nRows=13
nColumns=34
inDegrees=yes

Units are S.I. units (second, meters, Newtons, ...)
Angles are in degrees.

endheader
time	pelvis_tilt	pelvis_list	pelvis_rotation	pelvis_tx	pelvis_ty	pelvis_tz	hip_flexion_r	hip_adduction_r	hip_rotation_r	knee_angle_r	ankle_angle_r	subtalar_angle_r	mtp_angle_r	hip_flexion_l	hip_adduction_l	hip_rotation_l	knee_angle_l	socket_flexion	socket_adduction	socket_rotation	socket_tx	socket_ty	socket_tz	pros_ankle_rx	pros_ankle_ry	pros_ankle_rz	pros_ankle_tx	pros_ankle_ty	pros_ankle_tz	foot_flex	lumbar_extension	lumbar_bending	lumbar_rotation
      0.60416667	     -0.24859474	     -3.28522224	      5.20934078	      0.05284535	      1.02359518	      0.32543909	     18.89958497	      3.72506001	     -8.07642603	      4.41032136	     13.00902147	      9.47693845	      5.19180160	    -20.98333823	     -2.74665136	      6.99803919	      0.01816474	      9.48854962	      0.00000000	      0.00000000	      0.00000000	     -0.00006291	      0.00000000	      0.00000000	      0.00000000	      0.00000000	      0.00000000	      0.00000000	      0.00000000	     13.62966746	    -19.97762848	     -0.20814121	    -10.78160506
      0.60833333	     -0.21924438	     -3.30809979	      5.40230778	      0.05917827	      1.02272833	      0.32538607	     18.95302708	      3.71588497	     -7.77416464	      4.05364247	     12.78393326	      9.52719908	      5.26330229	    -21.17932353	     -2.87156783	      7.14553121	     -0.22762475	      9.63004901	      0.00000000	      0.00000000	      0.00000000	     -0.00004585	      0.00000000	      0.00000000	      0.00000000	      0.00000000	      0.00000000	      0.00000000	      0.00000000	     13.69606001	    -19.89335234	     -0.08570926	    -10.79032708
      0.61250000	     -0.49364896	     -3.29877150	      5.64430458	      0.06496023	      1.02134040	      0.32526427	     19.47754173	      3.60476353	     -7.53186358	      3.49992393	     11.76637446	      9.07999474	      8.46707687	    -20.53876439	     -2.88530793	      7.24708272	     -1.79181462	      9.01215465	      0.00000000	      0.00000000	      0.00000000	     -0.00067452	      0.00000000	      0.00000000	      0.00000000	      0.00000000	      0.00000000	      0.00000000	      0.00000000	     13.72375175	    -19.62244923	      0.09839980	    -11.02996167
      0.61666667	     -0.42821899	     -3.36171484	      5.79186989	      0.07133945	      1.02059453	      0.32523353	     19.52701343	      3.65152224	     -7.23155563	      2.99328812	     11.43185177	      9.14857345	      8.50816169	    -20.76597586	     -3.03360010	      7.35722710	     -2.02059578	      9.21584943	      0.00000000	      0.00000000	      0.00000000	     -0.00075023	      0.00000000	      0.00000000	      0.00000000	      0.00000000	      0.00000000	      0.00000000	      0.00000000	     13.77127353	    -19.57263458	      0.25853482	    -11.02219529
      0.62083333	     -0.34113979	     -3.44617705	      5.86381018	      0.07762349	      1.01985070	      0.32529465	     19.67538279	      3.73322322	     -7.00110153	      2.25910969	     10.84372752	      9.17249200	      8.59617234	    -20.98328374	     -3.16886411	      7.31319958	     -2.32330376	      9.40317951	      0.00000000	      0.00000000	      0.00000000	     -0.00093259	      0.00000000	      0.00000000	      0.00000000	      0.00000000	      0.00000000	      0.00000000	      0.00000000	     13.78451503	    -19.64057683	      0.53933796	    -10.99613133
      0.62500000	     -0.43372804	     -3.55480771	      6.00305935	      0.08370482	      1.01885647	      0.32530588	     20.11595060	      3.77681110	     -7.05525318	      1.38278473	      9.85491444	      9.16036295	     12.11813416	    -20.64803290	     -3.29646716	      7.23827910	     -3.57394534	      9.03745913	      0.00000000	      0.00000000	      0.00000000	     -0.00145972	      0.00000000	      0.00000000	      0.00000000	      0.00000000	      0.00000000	      0.00000000	      0.00000000	     13.75531023	    -19.56156541	      0.77478224	    -10.93875817
      0.62916667	     -0.31311272	     -3.67401026	      6.05149924	      0.09001294	      1.01828651	      0.32540678	     20.24095203	      3.90717973	     -6.85662272	      0.56883348	      9.25409305	      9.15023294	     12.15897407	    -20.86499804	     -3.45932149	      7.16460577	     -3.92024603	      9.25983162	      0.00000000	      0.00000000	      0.00000000	     -0.00168414	      0.00000000	      0.00000000	      0.00000000	      0.00000000	      0.00000000	      0.00000000	      0.00000000	     13.73604908	    -19.66029537	      1.04672892	    -10.86424285
      0.63333333	     -0.17441156	     -3.83008439	      6.05718948	      0.09629488	      1.01777500	      0.32559025	     20.39657544	      4.09020738	     -6.73237871	     -0.34971203	      8.61179209	      9.10240310	     12.31292865	    -21.02312262	     -3.63831006	      7.00577791	     -4.47227511	      9.38394024	      0.00000000	      0.00000000	      0.00000000	     -0.00201861	      0.00000000	      0.00000000	      0.00000000	      0.00000000	      0.00000000	      0.00000000	      0.00000000	     13.68083609	    -19.81533155	      1.32690548	    -10.67745065
      0.63750000	     -0.16327803	     -3.92603917	      6.16008433	      0.10225159	      1.01711385	      0.32565870	     20.75009130	      4.14969528	     -6.67666498	     -1.39319667	      7.97519843	      9.12060527	     13.47157760	    -20.69217186	     -3.73926420	      6.89024589	     -5.92527776	      8.97918540	      0.00000000	      0.00000000	      0.00000000	     -0.00251568	      0.00000000	      0.00000000	      0.00000000	      0.00000000	      0.00000000	      0.00000000	      0.00000000	     13.60293761	    -19.83683032	      1.53207283	    -10.37267445
      0.64166667	     -0.03527243	     -4.10605858	      6.14267721	      0.10859606	      1.01669863	      0.32585099	     20.93432358	      4.35268495	     -6.60849638	     -2.38896073	      7.34170283	      9.03278044	     13.58142673	    -20.84140824	     -3.93403169	      6.73169250	     -6.40875237	      9.20242196	      0.00000000	      0.00000000	      0.00000000	     -0.00291245	      0.00000000	      0.00000000	      0.00000000	      0.00000000	      0.00000000	      0.00000000	      0.00000000	     13.47044814	    -19.92875229	      1.86366154	    -10.31555423
      0.64583333	      0.10902800	     -4.29631236	      6.10988584	      0.11489692	      1.01634753	      0.32607244	     21.13029162	      4.56975174	     -6.59603540	     -3.45843792	      6.73453779	      8.96236672	     13.77016433	    -20.91880836	     -4.12416401	      6.50513907	     -7.13117324	      9.30252330	      0.00000000	      0.00000000	      0.00000000	     -0.00336776	      0.00000000	      0.00000000	      0.00000000	      0.00000000	      0.00000000	      0.00000000	      0.00000000	     13.31936628	    -20.07609005	      2.19083835	    -10.09842177
      0.65000000	     -0.06192851	     -4.42133277	      6.21612929	      0.12072277	      1.01558385	      0.32610371	     21.81376971	      4.58269110	     -6.89713597	     -4.79994198	      6.31230474	      9.22759728	     15.40338258	    -20.08216064	     -4.21373778	      6.40682667	     -9.31235155	      8.55032458	      0.00000000	      0.00000000	      0.00000000	     -0.00391160	      0.00000000	      0.00000000	      0.00000000	      0.00000000	      0.00000000	      0.00000000	      0.00000000	     13.11833309	    -19.88629622	      2.43121078	     -9.87127500
      0.65416667	      0.15127306	     -4.59993448	      6.14847996	      0.12694224	      1.01546222	      0.32640155	     21.93569793	      4.79781717	     -6.92322994	     -5.89699103	      5.79662675	      9.23931724	     15.66096247	    -20.14945338	     -4.37890562	      6.13521655	    -10.19718028	      8.60629297	      0.00000000	      0.00000000	      0.00000000	     -0.00438075	      0.00000000	      0.00000000	      0.00000000	      0.00000000	      0.00000000	      0.00000000	      0.00000000	     12.85903724	    -20.08601407	      2.73186210	     -9.51770109
